<svg xmlns="http://www.w3.org/2000/svg" viewBox="0 0 100 100" width="100%" height="100%">
  <defs>
    <filter id="wood-shadow" x="-20%" y="-20%" width="140%" height="140%">
      <feDropShadow dx="0" dy="2" stdDeviation="1.5" flood-color="#000000" flood-opacity="0.6"/>
    </filter>
  </defs>
  <g filter="url(#wood-shadow)">
    <g transform="rotate(0 50 50)">
      <path d="M 50 40 C 34 20 42 6 50 1 C 58 6 66 20 50 40 Z" fill="#d97706" stroke="#291502" stroke-width="2" stroke-linejoin="round" />
      <path d="M 50 35 L 50 12" stroke="#291502" stroke-width="1.5" stroke-linecap="round" />
    </g>
    <g transform="rotate(22.5 50 50)">
      <path d="M 50 40 C 34 20 42 6 50 1 C 58 6 66 20 50 40 Z" fill="#d97706" stroke="#291502" stroke-width="2" stroke-linejoin="round" />
      <path d="M 50 35 L 50 12" stroke="#291502" stroke-width="1.5" stroke-linecap="round" />
    </g>
    <g transform="rotate(45 50 50)">
      <path d="M 50 40 C 34 20 42 6 50 1 C 58 6 66 20 50 40 Z" fill="#d97706" stroke="#291502" stroke-width="2" stroke-linejoin="round" />
      <path d="M 50 35 L 50 12" stroke="#291502" stroke-width="1.5" stroke-linecap="round" />
    </g>
    <g transform="rotate(67.5 50 50)">
      <path d="M 50 40 C 34 20 42 6 50 1 C 58 6 66 20 50 40 Z" fill="#d97706" stroke="#291502" stroke-width="2" stroke-linejoin="round" />
      <path d="M 50 35 L 50 12" stroke="#291502" stroke-width="1.5" stroke-linecap="round" />
    </g>
    <g transform="rotate(90 50 50)">
      <path d="M 50 40 C 34 20 42 6 50 1 C 58 6 66 20 50 40 Z" fill="#d97706" stroke="#291502" stroke-width="2" stroke-linejoin="round" />
      <path d="M 50 35 L 50 12" stroke="#291502" stroke-width="1.5" stroke-linecap="round" />
    </g>
    <g transform="rotate(112.5 50 50)">
      <path d="M 50 40 C 34 20 42 6 50 1 C 58 6 66 20 50 40 Z" fill="#d97706" stroke="#291502" stroke-width="2" stroke-linejoin="round" />
      <path d="M 50 35 L 50 12" stroke="#291502" stroke-width="1.5" stroke-linecap="round" />
    </g>
    <g transform="rotate(135 50 50)">
      <path d="M 50 40 C 34 20 42 6 50 1 C 58 6 66 20 50 40 Z" fill="#d97706" stroke="#291502" stroke-width="2" stroke-linejoin="round" />
      <path d="M 50 35 L 50 12" stroke="#291502" stroke-width="1.5" stroke-linecap="round" />
    </g>
    <g transform="rotate(157.5 50 50)">
      <path d="M 50 40 C 34 20 42 6 50 1 C 58 6 66 20 50 40 Z" fill="#d97706" stroke="#291502" stroke-width="2" stroke-linejoin="round" />
      <path d="M 50 35 L 50 12" stroke="#291502" stroke-width="1.5" stroke-linecap="round" />
    </g>
    <g transform="rotate(180 50 50)">
      <path d="M 50 40 C 34 20 42 6 50 1 C 58 6 66 20 50 40 Z" fill="#d97706" stroke="#291502" stroke-width="2" stroke-linejoin="round" />
      <path d="M 50 35 L 50 12" stroke="#291502" stroke-width="1.5" stroke-linecap="round" />
    </g>
    <g transform="rotate(202.5 50 50)">
      <path d="M 50 40 C 34 20 42 6 50 1 C 58 6 66 20 50 40 Z" fill="#d97706" stroke="#291502" stroke-width="2" stroke-linejoin="round" />
      <path d="M 50 35 L 50 12" stroke="#291502" stroke-width="1.5" stroke-linecap="round" />
    </g>
    <g transform="rotate(225 50 50)">
      <path d="M 50 40 C 34 20 42 6 50 1 C 58 6 66 20 50 40 Z" fill="#d97706" stroke="#291502" stroke-width="2" stroke-linejoin="round" />
      <path d="M 50 35 L 50 12" stroke="#291502" stroke-width="1.5" stroke-linecap="round" />
    </g>
    <g transform="rotate(247.5 50 50)">
      <path d="M 50 40 C 34 20 42 6 50 1 C 58 6 66 20 50 40 Z" fill="#d97706" stroke="#291502" stroke-width="2" stroke-linejoin="round" />
      <path d="M 50 35 L 50 12" stroke="#291502" stroke-width="1.5" stroke-linecap="round" />
    </g>
    <g transform="rotate(270 50 50)">
      <path d="M 50 40 C 34 20 42 6 50 1 C 58 6 66 20 50 40 Z" fill="#d97706" stroke="#291502" stroke-width="2" stroke-linejoin="round" />
      <path d="M 50 35 L 50 12" stroke="#291502" stroke-width="1.5" stroke-linecap="round" />
    </g>
    <g transform="rotate(292.5 50 50)">
      <path d="M 50 40 C 34 20 42 6 50 1 C 58 6 66 20 50 40 Z" fill="#d97706" stroke="#291502" stroke-width="2" stroke-linejoin="round" />
      <path d="M 50 35 L 50 12" stroke="#291502" stroke-width="1.5" stroke-linecap="round" />
    </g>
    <g transform="rotate(315 50 50)">
      <path d="M 50 40 C 34 20 42 6 50 1 C 58 6 66 20 50 40 Z" fill="#d97706" stroke="#291502" stroke-width="2" stroke-linejoin="round" />
      <path d="M 50 35 L 50 12" stroke="#291502" stroke-width="1.5" stroke-linecap="round" />
    </g>
    <g transform="rotate(337.5 50 50)">
      <path d="M 50 40 C 34 20 42 6 50 1 C 58 6 66 20 50 40 Z" fill="#d97706" stroke="#291502" stroke-width="2" stroke-linejoin="round" />
      <path d="M 50 35 L 50 12" stroke="#291502" stroke-width="1.5" stroke-linecap="round" />
    </g>
    <g transform="rotate(11.25 50 50)">
      <path d="M 50 42 C 37 25 44 10 50 4 C 56 10 63 25 50 42 Z" fill="#f59e0b" stroke="#291502" stroke-width="2" stroke-linejoin="round" />
      <path d="M 50 37 L 50 15" stroke="#291502" stroke-width="1.5" stroke-linecap="round" />
    </g>
    <g transform="rotate(33.75 50 50)">
      <path d="M 50 42 C 37 25 44 10 50 4 C 56 10 63 25 50 42 Z" fill="#f59e0b" stroke="#291502" stroke-width="2" stroke-linejoin="round" />
      <path d="M 50 37 L 50 15" stroke="#291502" stroke-width="1.5" stroke-linecap="round" />
    </g>
    <g transform="rotate(56.25 50 50)">
      <path d="M 50 42 C 37 25 44 10 50 4 C 56 10 63 25 50 42 Z" fill="#f59e0b" stroke="#291502" stroke-width="2" stroke-linejoin="round" />
      <path d="M 50 37 L 50 15" stroke="#291502" stroke-width="1.5" stroke-linecap="round" />
    </g>
    <g transform="rotate(78.75 50 50)">
      <path d="M 50 42 C 37 25 44 10 50 4 C 56 10 63 25 50 42 Z" fill="#f59e0b" stroke="#291502" stroke-width="2" stroke-linejoin="round" />
      <path d="M 50 37 L 50 15" stroke="#291502" stroke-width="1.5" stroke-linecap="round" />
    </g>
    <g transform="rotate(101.25 50 50)">
      <path d="M 50 42 C 37 25 44 10 50 4 C 56 10 63 25 50 42 Z" fill="#f59e0b" stroke="#291502" stroke-width="2" stroke-linejoin="round" />
      <path d="M 50 37 L 50 15" stroke="#291502" stroke-width="1.5" stroke-linecap="round" />
    </g>
    <g transform="rotate(123.75 50 50)">
      <path d="M 50 42 C 37 25 44 10 50 4 C 56 10 63 25 50 42 Z" fill="#f59e0b" stroke="#291502" stroke-width="2" stroke-linejoin="round" />
      <path d="M 50 37 L 50 15" stroke="#291502" stroke-width="1.5" stroke-linecap="round" />
    </g>
    <g transform="rotate(146.25 50 50)">
      <path d="M 50 42 C 37 25 44 10 50 4 C 56 10 63 25 50 42 Z" fill="#f59e0b" stroke="#291502" stroke-width="2" stroke-linejoin="round" />
      <path d="M 50 37 L 50 15" stroke="#291502" stroke-width="1.5" stroke-linecap="round" />
    </g>
    <g transform="rotate(168.75 50 50)">
      <path d="M 50 42 C 37 25 44 10 50 4 C 56 10 63 25 50 42 Z" fill="#f59e0b" stroke="#291502" stroke-width="2" stroke-linejoin="round" />
      <path d="M 50 37 L 50 15" stroke="#291502" stroke-width="1.5" stroke-linecap="round" />
    </g>
    <g transform="rotate(191.25 50 50)">
      <path d="M 50 42 C 37 25 44 10 50 4 C 56 10 63 25 50 42 Z" fill="#f59e0b" stroke="#291502" stroke-width="2" stroke-linejoin="round" />
      <path d="M 50 37 L 50 15" stroke="#291502" stroke-width="1.5" stroke-linecap="round" />
    </g>
    <g transform="rotate(213.75 50 50)">
      <path d="M 50 42 C 37 25 44 10 50 4 C 56 10 63 25 50 42 Z" fill="#f59e0b" stroke="#291502" stroke-width="2" stroke-linejoin="round" />
      <path d="M 50 37 L 50 15" stroke="#291502" stroke-width="1.5" stroke-linecap="round" />
    </g>
    <g transform="rotate(236.25 50 50)">
      <path d="M 50 42 C 37 25 44 10 50 4 C 56 10 63 25 50 42 Z" fill="#f59e0b" stroke="#291502" stroke-width="2" stroke-linejoin="round" />
      <path d="M 50 37 L 50 15" stroke="#291502" stroke-width="1.5" stroke-linecap="round" />
    </g>
    <g transform="rotate(258.75 50 50)">
      <path d="M 50 42 C 37 25 44 10 50 4 C 56 10 63 25 50 42 Z" fill="#f59e0b" stroke="#291502" stroke-width="2" stroke-linejoin="round" />
      <path d="M 50 37 L 50 15" stroke="#291502" stroke-width="1.5" stroke-linecap="round" />
    </g>
    <g transform="rotate(281.25 50 50)">
      <path d="M 50 42 C 37 25 44 10 50 4 C 56 10 63 25 50 42 Z" fill="#f59e0b" stroke="#291502" stroke-width="2" stroke-linejoin="round" />
      <path d="M 50 37 L 50 15" stroke="#291502" stroke-width="1.5" stroke-linecap="round" />
    </g>
    <g transform="rotate(303.75 50 50)">
      <path d="M 50 42 C 37 25 44 10 50 4 C 56 10 63 25 50 42 Z" fill="#f59e0b" stroke="#291502" stroke-width="2" stroke-linejoin="round" />
      <path d="M 50 37 L 50 15" stroke="#291502" stroke-width="1.5" stroke-linecap="round" />
    </g>
    <g transform="rotate(326.25 50 50)">
      <path d="M 50 42 C 37 25 44 10 50 4 C 56 10 63 25 50 42 Z" fill="#f59e0b" stroke="#291502" stroke-width="2" stroke-linejoin="round" />
      <path d="M 50 37 L 50 15" stroke="#291502" stroke-width="1.5" stroke-linecap="round" />
    </g>
    <g transform="rotate(348.75 50 50)">
      <path d="M 50 42 C 37 25 44 10 50 4 C 56 10 63 25 50 42 Z" fill="#f59e0b" stroke="#291502" stroke-width="2" stroke-linejoin="round" />
      <path d="M 50 37 L 50 15" stroke="#291502" stroke-width="1.5" stroke-linecap="round" />
    </g>
    <g transform="rotate(0 50 50)">
      <path d="M 50 45 C 41 30 45 15 50 9 C 55 15 59 30 50 45 Z" fill="#fbbf24" stroke="#291502" stroke-width="2" stroke-linejoin="round" />
      <path d="M 50 40 L 50 20" stroke="#291502" stroke-width="1.5" stroke-linecap="round" />
    </g>
    <g transform="rotate(22.5 50 50)">
      <path d="M 50 45 C 41 30 45 15 50 9 C 55 15 59 30 50 45 Z" fill="#fbbf24" stroke="#291502" stroke-width="2" stroke-linejoin="round" />
      <path d="M 50 40 L 50 20" stroke="#291502" stroke-width="1.5" stroke-linecap="round" />
    </g>
    <g transform="rotate(45 50 50)">
      <path d="M 50 45 C 41 30 45 15 50 9 C 55 15 59 30 50 45 Z" fill="#fbbf24" stroke="#291502" stroke-width="2" stroke-linejoin="round" />
      <path d="M 50 40 L 50 20" stroke="#291502" stroke-width="1.5" stroke-linecap="round" />
    </g>
    <g transform="rotate(67.5 50 50)">
      <path d="M 50 45 C 41 30 45 15 50 9 C 55 15 59 30 50 45 Z" fill="#fbbf24" stroke="#291502" stroke-width="2" stroke-linejoin="round" />
      <path d="M 50 40 L 50 20" stroke="#291502" stroke-width="1.5" stroke-linecap="round" />
    </g>
    <g transform="rotate(90 50 50)">
      <path d="M 50 45 C 41 30 45 15 50 9 C 55 15 59 30 50 45 Z" fill="#fbbf24" stroke="#291502" stroke-width="2" stroke-linejoin="round" />
      <path d="M 50 40 L 50 20" stroke="#291502" stroke-width="1.5" stroke-linecap="round" />
    </g>
    <g transform="rotate(112.5 50 50)">
      <path d="M 50 45 C 41 30 45 15 50 9 C 55 15 59 30 50 45 Z" fill="#fbbf24" stroke="#291502" stroke-width="2" stroke-linejoin="round" />
      <path d="M 50 40 L 50 20" stroke="#291502" stroke-width="1.5" stroke-linecap="round" />
    </g>
    <g transform="rotate(135 50 50)">
      <path d="M 50 45 C 41 30 45 15 50 9 C 55 15 59 30 50 45 Z" fill="#fbbf24" stroke="#291502" stroke-width="2" stroke-linejoin="round" />
      <path d="M 50 40 L 50 20" stroke="#291502" stroke-width="1.5" stroke-linecap="round" />
    </g>
    <g transform="rotate(157.5 50 50)">
      <path d="M 50 45 C 41 30 45 15 50 9 C 55 15 59 30 50 45 Z" fill="#fbbf24" stroke="#291502" stroke-width="2" stroke-linejoin="round" />
      <path d="M 50 40 L 50 20" stroke="#291502" stroke-width="1.5" stroke-linecap="round" />
    </g>
    <g transform="rotate(180 50 50)">
      <path d="M 50 45 C 41 30 45 15 50 9 C 55 15 59 30 50 45 Z" fill="#fbbf24" stroke="#291502" stroke-width="2" stroke-linejoin="round" />
      <path d="M 50 40 L 50 20" stroke="#291502" stroke-width="1.5" stroke-linecap="round" />
    </g>
    <g transform="rotate(202.5 50 50)">
      <path d="M 50 45 C 41 30 45 15 50 9 C 55 15 59 30 50 45 Z" fill="#fbbf24" stroke="#291502" stroke-width="2" stroke-linejoin="round" />
      <path d="M 50 40 L 50 20" stroke="#291502" stroke-width="1.5" stroke-linecap="round" />
    </g>
    <g transform="rotate(225 50 50)">
      <path d="M 50 45 C 41 30 45 15 50 9 C 55 15 59 30 50 45 Z" fill="#fbbf24" stroke="#291502" stroke-width="2" stroke-linejoin="round" />
      <path d="M 50 40 L 50 20" stroke="#291502" stroke-width="1.5" stroke-linecap="round" />
    </g>
    <g transform="rotate(247.5 50 50)">
      <path d="M 50 45 C 41 30 45 15 50 9 C 55 15 59 30 50 45 Z" fill="#fbbf24" stroke="#291502" stroke-width="2" stroke-linejoin="round" />
      <path d="M 50 40 L 50 20" stroke="#291502" stroke-width="1.5" stroke-linecap="round" />
    </g>
    <g transform="rotate(270 50 50)">
      <path d="M 50 45 C 41 30 45 15 50 9 C 55 15 59 30 50 45 Z" fill="#fbbf24" stroke="#291502" stroke-width="2" stroke-linejoin="round" />
      <path d="M 50 40 L 50 20" stroke="#291502" stroke-width="1.5" stroke-linecap="round" />
    </g>
    <g transform="rotate(292.5 50 50)">
      <path d="M 50 45 C 41 30 45 15 50 9 C 55 15 59 30 50 45 Z" fill="#fbbf24" stroke="#291502" stroke-width="2" stroke-linejoin="round" />
      <path d="M 50 40 L 50 20" stroke="#291502" stroke-width="1.5" stroke-linecap="round" />
    </g>
    <g transform="rotate(315 50 50)">
      <path d="M 50 45 C 41 30 45 15 50 9 C 55 15 59 30 50 45 Z" fill="#fbbf24" stroke="#291502" stroke-width="2" stroke-linejoin="round" />
      <path d="M 50 40 L 50 20" stroke="#291502" stroke-width="1.5" stroke-linecap="round" />
    </g>
    <g transform="rotate(337.5 50 50)">
      <path d="M 50 45 C 41 30 45 15 50 9 C 55 15 59 30 50 45 Z" fill="#fbbf24" stroke="#291502" stroke-width="2" stroke-linejoin="round" />
      <path d="M 50 40 L 50 20" stroke="#291502" stroke-width="1.5" stroke-linecap="round" />
    </g>
    <circle cx="50" cy="50" r="19" fill="#291502" />
    <circle cx="65.00" cy="50.00" r="1.5" fill="#f59e0b" />
    <circle cx="64.27" cy="54.64" r="1.5" fill="#f59e0b" />
    <circle cx="62.14" cy="58.82" r="1.5" fill="#f59e0b" />
    <circle cx="58.82" cy="62.14" r="1.5" fill="#f59e0b" />
    <circle cx="54.64" cy="64.27" r="1.5" fill="#f59e0b" />
    <circle cx="50.00" cy="65.00" r="1.5" fill="#f59e0b" />
    <circle cx="45.36" cy="64.27" r="1.5" fill="#f59e0b" />
    <circle cx="41.18" cy="62.14" r="1.5" fill="#f59e0b" />
    <circle cx="37.86" cy="58.82" r="1.5" fill="#f59e0b" />
    <circle cx="35.73" cy="54.64" r="1.5" fill="#f59e0b" />
    <circle cx="35.00" cy="50.00" r="1.5" fill="#f59e0b" />
    <circle cx="35.73" cy="45.36" r="1.5" fill="#f59e0b" />
    <circle cx="37.86" cy="41.18" r="1.5" fill="#f59e0b" />
    <circle cx="41.18" cy="37.86" r="1.5" fill="#f59e0b" />
    <circle cx="45.36" cy="35.73" r="1.5" fill="#f59e0b" />
    <circle cx="50.00" cy="35.00" r="1.5" fill="#f59e0b" />
    <circle cx="54.64" cy="35.73" r="1.5" fill="#f59e0b" />
    <circle cx="58.82" cy="37.86" r="1.5" fill="#f59e0b" />
    <circle cx="62.14" cy="41.18" r="1.5" fill="#f59e0b" />
    <circle cx="64.27" cy="45.36" r="1.5" fill="#f59e0b" />
    <circle cx="60.00" cy="50.00" r="1.2" fill="#d97706" />
    <circle cx="59.01" cy="54.34" r="1.2" fill="#d97706" />
    <circle cx="56.23" cy="57.82" r="1.2" fill="#d97706" />
    <circle cx="52.23" cy="59.75" r="1.2" fill="#d97706" />
    <circle cx="47.77" cy="59.75" r="1.2" fill="#d97706" />
    <circle cx="43.77" cy="57.82" r="1.2" fill="#d97706" />
    <circle cx="40.99" cy="54.34" r="1.2" fill="#d97706" />
    <circle cx="40.00" cy="50.00" r="1.2" fill="#d97706" />
    <circle cx="40.99" cy="45.66" r="1.2" fill="#d97706" />
    <circle cx="43.77" cy="42.18" r="1.2" fill="#d97706" />
    <circle cx="47.77" cy="40.25" r="1.2" fill="#d97706" />
    <circle cx="52.23" cy="40.25" r="1.2" fill="#d97706" />
    <circle cx="56.23" cy="42.18" r="1.2" fill="#d97706" />
    <circle cx="59.01" cy="45.66" r="1.2" fill="#d97706" />
    <circle cx="55.00" cy="50.00" r="1" fill="#fbbf24" />
    <circle cx="53.12" cy="53.91" r="1" fill="#fbbf24" />
    <circle cx="48.89" cy="54.87" r="1" fill="#fbbf24" />
    <circle cx="45.50" cy="52.17" r="1" fill="#fbbf24" />
    <circle cx="45.50" cy="47.83" r="1" fill="#fbbf24" />
    <circle cx="48.89" cy="45.13" r="1" fill="#fbbf24" />
    <circle cx="53.12" cy="46.09" r="1" fill="#fbbf24" />
    <circle cx="50" cy="50" r="1" fill="#fbbf24" />
  </g>
</svg>